# xmcd CD database file
#
# Track frame offsets:
#	150
#	24444
#	51052
#	74932
#	94325
#	126122
#	141435
#	160480
#	181875
#	200655
#	215537
#
# Disc length: 3206 seconds
#
# Revision: 0
# Processed by: cddbd v1.5.2PL0 Copyright (c) Steve Scherf et al.
# Submitted via: CDex 1.51
#
DISCID=ae0c840b
DTITLE=Jenny Scheinman - Jenny Scheinman
DYEAR=2008
DGENRE=Jazz
TTITLE0=I Was Young When I Left Home
TTITLE1=Come On Down
TTITLE2=Rebecca's Song
TTITLE3=Miss Collins
TTITLE4=King of Hearts
TTITLE5=Shame Shame SHame
TTITLE6=The Green
TTITLE7=Twilight Time
TTITLE8=Skinny Man
TTITLE9=NewsPaper Angels
TTITLE10=Johnsbug, Illinois
EXTD=YEAR: 2008
EXTT0=
EXTT1=
EXTT2=
EXTT3=
EXTT4=
EXTT5=
EXTT6=
EXTT7=
EXTT8=
EXTT9=
EXTT10=
PLAYORDER=
